# xmcd
#
# Track frame offsets:
#	150
#	19072
#	37362
#	55317
#	74917
#	92747
#	113540
#	132890
#
# Disc length: 2028 seconds
#
# Revision: 0
# Processed by: cddbd v1.5.1PL0 Copyright (c) Steve Scherf et al.
# Submitted via: EasyCDDAExtractor 8.2.1.1
#
DISCID=7307ea08
DTITLE=Jerry Galante - Todo un Extasis de Amor
DYEAR=1900
DGENRE=latin
TTITLE0=Te Falto el Amor
TTITLE1=Tu Eres lo Maximo
TTITLE2=Llego el Galante
TTITLE3=Loco Amor
TTITLE4=Intentemoslo de Nuevo
TTITLE5=Voy a Inventar Para Ti
TTITLE6=Si Estoy Aqui
TTITLE7=No Volverte a Ver
EXTD=
EXTT0=
EXTT1=
EXTT2=
EXTT3=
EXTT4=
EXTT5=
EXTT6=
EXTT7=
PLAYORDER=
